meshSize_dummy2=6;
meshSize_test=6;

Point(1)={75.959187,115.000862,0.0,meshSize_dummy2}; //ptDictNo is 1
Point(2)={31.748793,33.907854,0.0,meshSize_dummy2}; //ptDictNo is 2
Point(3)={-26.531277,33.907854,0.0,meshSize_dummy2}; //ptDictNo is 3
Point(4)={-74.040813,115.000862,0.0,meshSize_dummy2}; //ptDictNo is 4
Point(6)={75.959187,115.000862,100.0,meshSize_dummy2}; //ptDictNo is 6
Point(9)={-74.040813,115.000862,100.0,meshSize_dummy2}; //ptDictNo is 9
Point(13)={-74.040813,-84.999138,100.0,meshSize_dummy2}; //ptDictNo is 13
Point(14)={75.959187,-84.999138,100.0,meshSize_dummy2}; //ptDictNo is 14
Point(18)={-26.531277,-22.650693,0.0,meshSize_dummy2}; //ptDictNo is 18
Point(19)={-74.040813,-84.999138,0.0,meshSize_dummy2}; //ptDictNo is 19
Point(29)={75.959187,-84.999138,0.0,meshSize_dummy2}; //ptDictNo is 29
Point(34)={31.748793,-22.650693,0.0,meshSize_dummy2}; //ptDictNo is 34
Point(51)={-2.92571,16.067358,0.0,meshSize_dummy2}; //ptDictNo is 51
Point(52)={3.531169,16.067358,0.0,meshSize_dummy2}; //ptDictNo is 52
Point(53)={3.531169,23.907854,0.0,meshSize_dummy2}; //ptDictNo is 53
Point(54)={-2.92571,23.907854,0.0,meshSize_dummy2}; //ptDictNo is 54
Point(56)={12.294077,-12.650693,0.0,meshSize_dummy2}; //ptDictNo is 56
Point(57)={21.748793,-12.650693,0.0,meshSize_dummy2}; //ptDictNo is 57
Point(58)={21.748793,-2.504169,0.0,meshSize_dummy2}; //ptDictNo is 58
Point(59)={12.294077,-2.504169,0.0,meshSize_dummy2}; //ptDictNo is 59
Point(61)={12.294077,7.18115,0.0,meshSize_dummy2}; //ptDictNo is 61
Point(62)={18.750956,7.18115,0.0,meshSize_dummy2}; //ptDictNo is 62
Point(63)={18.750956,19.864305,0.0,meshSize_dummy2}; //ptDictNo is 63
Point(64)={12.294077,19.864305,0.0,meshSize_dummy2}; //ptDictNo is 64
Point(66)={-5.987913,6.412888,0.0,meshSize_dummy2}; //ptDictNo is 66
Point(67)={-4.504013,4.249952,0.0,meshSize_dummy2}; //ptDictNo is 67
Point(68)={8.097546,4.249952,0.0,meshSize_dummy2}; //ptDictNo is 68
Point(69)={6.778683,10.73876,0.0,meshSize_dummy2}; //ptDictNo is 69
Point(70)={-2.822642,10.73876,0.0,meshSize_dummy2}; //ptDictNo is 70
Point(71)={-5.935159,9.683669,0.0,meshSize_dummy2}; //ptDictNo is 71
Point(73)={-2.464504,-11.925923,0.0,meshSize_dummy2}; //ptDictNo is 73
Point(74)={2.147552,-11.925923,0.0,meshSize_dummy2}; //ptDictNo is 74
Point(75)={2.147552,-5.238441,0.0,meshSize_dummy2}; //ptDictNo is 75
Point(76)={-2.464504,-5.238441,0.0,meshSize_dummy2}; //ptDictNo is 76
Point(78)={-16.531277,-11.728282,0.0,meshSize_dummy2}; //ptDictNo is 78
Point(79)={-11.458014,-11.728282,0.0,meshSize_dummy2}; //ptDictNo is 79
Point(80)={-11.458014,-1.351155,0.0,meshSize_dummy2}; //ptDictNo is 80
Point(81)={-16.531277,-1.351155,0.0,meshSize_dummy2}; //ptDictNo is 81
Point(83)={3.531169,16.067358,6.0,meshSize_dummy2}; //ptDictNo is 83
Point(84)={-2.92571,16.067358,6.0,meshSize_dummy2}; //ptDictNo is 84
Point(85)={-2.92571,23.907854,6.0,meshSize_dummy2}; //ptDictNo is 85
Point(86)={3.531169,23.907854,6.0,meshSize_dummy2}; //ptDictNo is 86
Point(108)={21.748793,-12.650693,4.0,meshSize_dummy2}; //ptDictNo is 108
Point(109)={12.294077,-12.650693,4.0,meshSize_dummy2}; //ptDictNo is 109
Point(110)={12.294077,-2.504169,4.0,meshSize_dummy2}; //ptDictNo is 110
Point(111)={21.748793,-2.504169,4.0,meshSize_dummy2}; //ptDictNo is 111
Point(133)={17.382293,9.62065,25.0,meshSize_dummy2}; //ptDictNo is 133
Point(134)={13.835606,9.62065,25.0,meshSize_dummy2}; //ptDictNo is 134
Point(135)={13.835606,17.65411,25.0,meshSize_dummy2}; //ptDictNo is 135
Point(136)={17.382293,17.65411,25.0,meshSize_dummy2}; //ptDictNo is 136
Point(140)={13.835606,9.62065,5.0,meshSize_dummy2}; //ptDictNo is 140
Point(141)={13.835606,17.65411,5.0,meshSize_dummy2}; //ptDictNo is 141
Point(146)={17.382293,17.65411,5.0,meshSize_dummy2}; //ptDictNo is 146
Point(151)={17.382293,9.62065,5.0,meshSize_dummy2}; //ptDictNo is 151
Point(163)={18.750956,7.18115,5.0,meshSize_dummy2}; //ptDictNo is 163
Point(164)={12.294077,7.18115,5.0,meshSize_dummy2}; //ptDictNo is 164
Point(165)={12.294077,19.864305,5.0,meshSize_dummy2}; //ptDictNo is 165
Point(166)={18.750956,19.864305,5.0,meshSize_dummy2}; //ptDictNo is 166
Point(188)={0.453285,8.070855,7.0,meshSize_dummy2}; //ptDictNo is 188
Point(189)={0.453285,10.397836,7.0,meshSize_dummy2}; //ptDictNo is 189
Point(190)={0.453285,10.397836,37.0,meshSize_dummy2}; //ptDictNo is 190
Point(191)={0.453285,8.070855,37.0,meshSize_dummy2}; //ptDictNo is 191
Point(195)={2.27562,8.070855,37.0,meshSize_dummy2}; //ptDictNo is 195
Point(196)={2.27562,8.070855,7.0,meshSize_dummy2}; //ptDictNo is 196
Point(200)={2.27562,6.416736,37.0,meshSize_dummy2}; //ptDictNo is 200
Point(201)={2.27562,6.416736,7.0,meshSize_dummy2}; //ptDictNo is 201
Point(205)={0.453285,6.412888,37.0,meshSize_dummy2}; //ptDictNo is 205
Point(206)={0.453285,6.412888,7.0,meshSize_dummy2}; //ptDictNo is 206
Point(210)={0.453285,3.64118,37.0,meshSize_dummy2}; //ptDictNo is 210
Point(211)={0.453285,3.64118,7.0,meshSize_dummy2}; //ptDictNo is 211
Point(215)={4.154026,3.64118,37.0,meshSize_dummy2}; //ptDictNo is 215
Point(216)={4.154026,3.64118,7.0,meshSize_dummy2}; //ptDictNo is 216
Point(220)={4.154026,5.659766,37.0,meshSize_dummy2}; //ptDictNo is 220
Point(221)={4.154026,5.659766,7.0,meshSize_dummy2}; //ptDictNo is 221
Point(225)={5.359571,5.659766,37.0,meshSize_dummy2}; //ptDictNo is 225
Point(226)={5.359571,5.659766,7.0,meshSize_dummy2}; //ptDictNo is 226
Point(230)={5.359571,3.613144,37.0,meshSize_dummy2}; //ptDictNo is 230
Point(231)={5.359571,3.613144,7.0,meshSize_dummy2}; //ptDictNo is 231
Point(235)={8.667809,3.613144,37.0,meshSize_dummy2}; //ptDictNo is 235
Point(236)={8.667809,3.613144,7.0,meshSize_dummy2}; //ptDictNo is 236
Point(240)={8.667809,6.412888,37.0,meshSize_dummy2}; //ptDictNo is 240
Point(241)={8.667809,6.412888,7.0,meshSize_dummy2}; //ptDictNo is 241
Point(245)={6.25672,6.412888,37.0,meshSize_dummy2}; //ptDictNo is 245
Point(246)={6.25672,6.412888,7.0,meshSize_dummy2}; //ptDictNo is 246
Point(250)={6.25672,7.958711,37.0,meshSize_dummy2}; //ptDictNo is 250
Point(251)={6.25672,7.958711,7.0,meshSize_dummy2}; //ptDictNo is 251
Point(255)={8.611738,7.958711,37.0,meshSize_dummy2}; //ptDictNo is 255
Point(256)={8.611738,7.958711,7.0,meshSize_dummy2}; //ptDictNo is 256
Point(260)={8.611738,10.3155,37.0,meshSize_dummy2}; //ptDictNo is 260
Point(261)={8.611738,10.3155,7.0,meshSize_dummy2}; //ptDictNo is 261
Point(285)={9.521919,2.509053,5.0,meshSize_dummy2}; //ptDictNo is 285
Point(286)={-7.570549,2.509053,5.0,meshSize_dummy2}; //ptDictNo is 286
Point(287)={-7.570549,2.509053,7.0,meshSize_dummy2}; //ptDictNo is 287
Point(288)={9.521919,2.509053,7.0,meshSize_dummy2}; //ptDictNo is 288
Point(292)={9.521919,11.899359,7.0,meshSize_dummy2}; //ptDictNo is 292
Point(293)={9.521919,11.899359,5.0,meshSize_dummy2}; //ptDictNo is 293
Point(297)={-7.570549,11.899359,7.0,meshSize_dummy2}; //ptDictNo is 297
Point(298)={-7.570549,11.899359,5.0,meshSize_dummy2}; //ptDictNo is 298
Point(310)={-4.504013,4.249952,5.0,meshSize_dummy2}; //ptDictNo is 310
Point(311)={-5.987913,6.412888,5.0,meshSize_dummy2}; //ptDictNo is 311
Point(312)={-5.935159,9.683669,5.0,meshSize_dummy2}; //ptDictNo is 312
Point(313)={-2.822642,10.73876,5.0,meshSize_dummy2}; //ptDictNo is 313
Point(314)={6.778683,10.73876,5.0,meshSize_dummy2}; //ptDictNo is 314
Point(315)={8.097546,4.249952,5.0,meshSize_dummy2}; //ptDictNo is 315
Point(369)={2.147552,-11.925923,5.0,meshSize_dummy2}; //ptDictNo is 369
Point(370)={-2.464504,-11.925923,5.0,meshSize_dummy2}; //ptDictNo is 370
Point(371)={-2.464504,-5.238441,5.0,meshSize_dummy2}; //ptDictNo is 371
Point(372)={2.147552,-5.238441,5.0,meshSize_dummy2}; //ptDictNo is 372
Point(394)={-11.458014,-11.728282,6.0,meshSize_dummy2}; //ptDictNo is 394
Point(395)={-16.531277,-11.728282,6.0,meshSize_dummy2}; //ptDictNo is 395
Point(396)={-16.531277,-1.351155,6.0,meshSize_dummy2}; //ptDictNo is 396
Point(397)={-11.458014,-1.351155,6.0,meshSize_dummy2}; //ptDictNo is 397
Line(1)={1,2};
Line(2)={2,3};
Line(3)={3,4};
Line(4)={4,1};
Line(5)={6,1};
Line(7)={4,9};
Line(8)={9,6};
Line(10)={9,13};
Line(11)={13,14};
Line(12)={14,6};
Line(14)={3,18};
Line(15)={18,19};
Line(16)={19,4};
Line(19)={19,13};
Line(23)={14,29};
Line(24)={29,1};
Line(27)={29,34};
Line(28)={34,2};
Line(31)={19,29};
Line(34)={18,34};
Line(41)={51,52};
Line(42)={52,53};
Line(43)={53,54};
Line(44)={54,51};
Line(45)={56,57};
Line(46)={57,58};
Line(47)={58,59};
Line(48)={59,56};
Line(49)={61,62};
Line(50)={62,63};
Line(51)={63,64};
Line(52)={64,61};
Line(53)={66,67};
Line(54)={67,68};
Line(55)={68,69};
Line(56)={69,70};
Line(57)={70,71};
Line(58)={71,66};
Line(59)={73,74};
Line(60)={74,75};
Line(61)={75,76};
Line(62)={76,73};
Line(63)={78,79};
Line(64)={79,80};
Line(65)={80,81};
Line(66)={81,78};
Line(67)={83,84};
Line(68)={84,85};
Line(69)={85,86};
Line(70)={86,83};
Line(72)={84,51};
Line(74)={54,85};
Line(78)={53,86};
Line(82)={52,83};
Line(87)={108,109};
Line(88)={109,110};
Line(89)={110,111};
Line(90)={111,108};
Line(92)={109,56};
Line(94)={59,110};
Line(98)={58,111};
Line(102)={57,108};
Line(107)={133,134};
Line(108)={134,135};
Line(109)={135,136};
Line(110)={136,133};
Line(112)={134,140};
Line(113)={140,141};
Line(114)={141,135};
Line(117)={141,146};
Line(118)={146,136};
Line(121)={146,151};
Line(122)={151,133};
Line(125)={151,140};
Line(131)={163,164};
Line(132)={164,165};
Line(133)={165,166};
Line(134)={166,163};
Line(136)={164,61};
Line(138)={64,165};
Line(142)={63,166};
Line(146)={62,163};
Line(151)={188,189};
Line(152)={189,190};
Line(153)={190,191};
Line(154)={191,188};
Line(156)={191,195};
Line(157)={195,196};
Line(158)={196,188};
Line(160)={195,200};
Line(161)={200,201};
Line(162)={201,196};
Line(164)={200,205};
Line(165)={205,206};
Line(166)={206,201};
Line(168)={205,210};
Line(169)={210,211};
Line(170)={211,206};
Line(172)={210,215};
Line(173)={215,216};
Line(174)={216,211};
Line(176)={215,220};
Line(177)={220,221};
Line(178)={221,216};
Line(180)={220,225};
Line(181)={225,226};
Line(182)={226,221};
Line(184)={225,230};
Line(185)={230,231};
Line(186)={231,226};
Line(188)={230,235};
Line(189)={235,236};
Line(190)={236,231};
Line(192)={235,240};
Line(193)={240,241};
Line(194)={241,236};
Line(196)={240,245};
Line(197)={245,246};
Line(198)={246,241};
Line(200)={245,250};
Line(201)={250,251};
Line(202)={251,246};
Line(204)={250,255};
Line(205)={255,256};
Line(206)={256,251};
Line(208)={255,260};
Line(209)={260,261};
Line(210)={261,256};
Line(212)={189,261};
Line(214)={260,190};
Line(231)={285,286};
Line(232)={286,287};
Line(233)={287,288};
Line(234)={288,285};
Line(236)={288,292};
Line(237)={292,293};
Line(238)={293,285};
Line(240)={292,297};
Line(241)={297,298};
Line(242)={298,293};
Line(244)={286,298};
Line(246)={297,287};
Line(251)={310,311};
Line(252)={311,312};
Line(253)={312,313};
Line(254)={313,314};
Line(255)={314,315};
Line(256)={315,310};
Line(278)={66,311};
Line(280)={310,67};
Line(283)={315,68};
Line(287)={314,69};
Line(291)={313,70};
Line(295)={312,71};
Line(301)={369,370};
Line(302)={370,371};
Line(303)={371,372};
Line(304)={372,369};
Line(306)={370,73};
Line(308)={76,371};
Line(312)={75,372};
Line(316)={74,369};
Line(321)={394,395};
Line(322)={395,396};
Line(323)={396,397};
Line(324)={397,394};
Line(326)={395,78};
Line(328)={81,396};
Line(332)={80,397};
Line(336)={79,394};
Line Loop(1)={1,2,3,4};
Line Loop(2)={5,-4,7,8};
Line Loop(3)={-8,10,11,12};
Line Loop(4)={-3,14,15,16};
Line Loop(5)={-7,-16,19,-10};
Line Loop(6)={-5,-12,23,24};
Line Loop(7)={-1,-24,27,28};
Line Loop(8)={-11,-19,31,-23};
Line Loop(9)={-15,34,-27,-31};
Line Loop(10)={-2,-28,-34,-14};
Line Loop(11)={41,42,43,44};
Line Loop(12)={45,46,47,48};
Line Loop(13)={49,50,51,52};
Line Loop(14)={53,54,55,56,57,58};
Line Loop(15)={59,60,61,62};
Line Loop(16)={63,64,65,66};
Line Loop(17)={67,68,69,70};
Line Loop(18)={-68,72,-44,74};
Line Loop(19)={-69,-74,-43,78};
Line Loop(20)={-70,-78,-42,82};
Line Loop(21)={-67,-82,-41,-72};
Line Loop(22)={87,88,89,90};
Line Loop(23)={-88,92,-48,94};
Line Loop(24)={-89,-94,-47,98};
Line Loop(25)={-90,-98,-46,102};
Line Loop(26)={-87,-102,-45,-92};
Line Loop(27)={107,108,109,110};
Line Loop(28)={-108,112,113,114};
Line Loop(29)={-109,-114,117,118};
Line Loop(30)={-110,-118,121,122};
Line Loop(31)={-107,-122,125,-112};
Line Loop(32)={-125,-121,-117,-113};
Line Loop(33)={131,132,133,134};
Line Loop(34)={-132,136,-52,138};
Line Loop(35)={-133,-138,-51,142};
Line Loop(36)={-134,-142,-50,146};
Line Loop(37)={-131,-146,-49,-136};
Line Loop(38)={151,152,153,154};
Line Loop(39)={-154,156,157,158};
Line Loop(40)={-157,160,161,162};
Line Loop(41)={-161,164,165,166};
Line Loop(42)={-165,168,169,170};
Line Loop(43)={-169,172,173,174};
Line Loop(44)={-173,176,177,178};
Line Loop(45)={-177,180,181,182};
Line Loop(46)={-181,184,185,186};
Line Loop(47)={-185,188,189,190};
Line Loop(48)={-189,192,193,194};
Line Loop(49)={-193,196,197,198};
Line Loop(50)={-197,200,201,202};
Line Loop(51)={-201,204,205,206};
Line Loop(52)={-205,208,209,210};
Line Loop(53)={-152,212,-209,214};
Line Loop(54)={-153,-214,-208,-204,-200,-196,-192,-188,-184,-180,-176,-172,-168,-164,-160,-156};
Line Loop(55)={231,232,233,234};
Line Loop(56)={-234,236,237,238};
Line Loop(57)={-237,240,241,242};
Line Loop(58)={-232,244,-241,246};
Line Loop(59)={-231,-238,-242,-244};
Line Loop(60)={251,252,253,254,255,256};
Line Loop(61)={-151,-158,-162,-166,-170,-174,-178,-182,-186,-190,-194,-198,-202,-206,-210,-212};
Line Loop(62)={-233,-246,-240,-236};
Line Loop(63)={-53,278,-251,280};
Line Loop(64)={-280,-256,283,-54};
Line Loop(65)={-283,-255,287,-55};
Line Loop(66)={-287,-254,291,-56};
Line Loop(67)={-291,-253,295,-57};
Line Loop(68)={-278,-58,-295,-252};
Line Loop(69)={301,302,303,304};
Line Loop(70)={-302,306,-62,308};
Line Loop(71)={-303,-308,-61,312};
Line Loop(72)={-304,-312,-60,316};
Line Loop(73)={-301,-316,-59,-306};
Line Loop(74)={321,322,323,324};
Line Loop(75)={-322,326,-66,328};
Line Loop(76)={-323,-328,-65,332};
Line Loop(77)={-324,-332,-64,336};
Line Loop(78)={-321,-336,-63,-326};
Plane Surface(1)={1};
Plane Surface(2)={2};
Plane Surface(3)={3};
Plane Surface(4)={4};
Plane Surface(5)={5};
Plane Surface(6)={6};
Plane Surface(7)={7};
Plane Surface(8)={8};
Plane Surface(9)={9};
Plane Surface(10)={10,11,12,13,14,15,16};
Plane Surface(11)={17};
Plane Surface(12)={18};
Plane Surface(13)={19};
Plane Surface(14)={20};
Plane Surface(15)={21};
Plane Surface(16)={22};
Plane Surface(17)={23};
Plane Surface(18)={24};
Plane Surface(19)={25};
Plane Surface(20)={26};
Plane Surface(21)={27};
Plane Surface(22)={28};
Plane Surface(23)={29};
Plane Surface(24)={30};
Plane Surface(25)={31};
Plane Surface(26)={32,33};
Plane Surface(27)={34};
Plane Surface(28)={35};
Plane Surface(29)={36};
Plane Surface(30)={37};
Plane Surface(31)={38};
Plane Surface(32)={39};
Plane Surface(33)={40};
Plane Surface(34)={41};
Plane Surface(35)={42};
Plane Surface(36)={43};
Plane Surface(37)={44};
Plane Surface(38)={45};
Plane Surface(39)={46};
Plane Surface(40)={47};
Plane Surface(41)={48};
Plane Surface(42)={49};
Plane Surface(43)={50};
Plane Surface(44)={51};
Plane Surface(45)={52};
Plane Surface(46)={53};
Plane Surface(47)={54};
Plane Surface(48)={55};
Plane Surface(49)={56};
Plane Surface(50)={57};
Plane Surface(51)={58};
Plane Surface(52)={59,60};
Plane Surface(53)={61,62};
Plane Surface(54)={63};
Plane Surface(55)={64};
Plane Surface(56)={65};
Plane Surface(57)={66};
Plane Surface(58)={67};
Plane Surface(59)={68};
Plane Surface(60)={69};
Plane Surface(61)={70};
Plane Surface(62)={71};
Plane Surface(63)={72};
Plane Surface(64)={73};
Plane Surface(65)={74};
Plane Surface(66)={75};
Plane Surface(67)={76};
Plane Surface(68)={77};
Plane Surface(69)={78};
Surface Loop(1)={1,2,3,4,5,6,7,8,9,10,11,12,13,14,15,16,17,18,19,20,21,22,23,24,25,26,27,28,29,30,31,32,33,34,35,36,37,38,39,40,41,42,43,44,45,46,47,48,49,50,51,52,53,54,55,56,57,58,59,60,61,62,63,64,65,66,67,68,69};
Volume(1)={1};

Physical Volume("domain")={1};
Physical Surface("inlet") = {8};
Physical Surface("outlet") = {2};
Physical Surface("symmetry")={5,6,3};
Physical Surface("buildings") = {11:69};
Physical Surface("ground")={4,1,9,7,10};