meshSize_block1_front=6;
meshSize_block2_back=6;
meshSize_block3_right=6;
meshSize_block4_left=6;
meshSize_block5_top=6;
meshSize_dummy=3;

Point(1)={-74.040813,-84.999138,100.0,meshSize_block1_front}; //ptDictNo is 1
Point(2)={-26.531277,-22.650693,47.0,meshSize_block1_front}; //ptDictNo is 2
Point(3)={-26.531277,-22.650693,0.0,meshSize_block1_front}; //ptDictNo is 3
Point(4)={-74.040813,-84.999138,0.0,meshSize_block1_front}; //ptDictNo is 4
Point(6)={31.748793,-22.650693,47.0,meshSize_block1_front}; //ptDictNo is 6
Point(7)={75.959187,-84.999138,100.0,meshSize_block1_front}; //ptDictNo is 7
Point(8)={75.959187,-84.999138,0.0,meshSize_block1_front}; //ptDictNo is 8
Point(9)={31.748793,-22.650693,0.0,meshSize_block1_front}; //ptDictNo is 9
Point(31)={31.748793,33.907854,0.0,meshSize_block2_back}; //ptDictNo is 31
Point(32)={75.959187,115.000862,0.0,meshSize_block2_back}; //ptDictNo is 32
Point(33)={75.959187,115.000862,100.0,meshSize_block2_back}; //ptDictNo is 33
Point(34)={31.748793,33.907854,47.0,meshSize_block2_back}; //ptDictNo is 34
Point(36)={-74.040813,115.000862,0.0,meshSize_block2_back}; //ptDictNo is 36
Point(37)={-26.531277,33.907854,0.0,meshSize_block2_back}; //ptDictNo is 37
Point(38)={-26.531277,33.907854,47.0,meshSize_block2_back}; //ptDictNo is 38
Point(39)={-74.040813,115.000862,100.0,meshSize_block2_back}; //ptDictNo is 39
Point(176)={-2.92571,16.067358,0.0,meshSize_dummy}; //ptDictNo is 176
Point(177)={3.531169,16.067358,0.0,meshSize_dummy}; //ptDictNo is 177
Point(178)={3.531169,23.907854,0.0,meshSize_dummy}; //ptDictNo is 178
Point(179)={-2.92571,23.907854,0.0,meshSize_dummy}; //ptDictNo is 179
Point(181)={12.294077,-12.650693,0.0,meshSize_dummy}; //ptDictNo is 181
Point(182)={21.748793,-12.650693,0.0,meshSize_dummy}; //ptDictNo is 182
Point(183)={21.748793,-2.504169,0.0,meshSize_dummy}; //ptDictNo is 183
Point(184)={12.294077,-2.504169,0.0,meshSize_dummy}; //ptDictNo is 184
Point(186)={12.294077,7.18115,0.0,meshSize_dummy}; //ptDictNo is 186
Point(187)={18.750956,7.18115,0.0,meshSize_dummy}; //ptDictNo is 187
Point(188)={18.750956,19.864305,0.0,meshSize_dummy}; //ptDictNo is 188
Point(189)={12.294077,19.864305,0.0,meshSize_dummy}; //ptDictNo is 189
Point(191)={-5.987913,6.412888,0.0,meshSize_dummy}; //ptDictNo is 191
Point(192)={-4.504013,4.249952,0.0,meshSize_dummy}; //ptDictNo is 192
Point(193)={8.097546,4.249952,0.0,meshSize_dummy}; //ptDictNo is 193
Point(194)={6.778683,10.73876,0.0,meshSize_dummy}; //ptDictNo is 194
Point(195)={-2.822642,10.73876,0.0,meshSize_dummy}; //ptDictNo is 195
Point(196)={-5.935159,9.683669,0.0,meshSize_dummy}; //ptDictNo is 196
Point(198)={-2.464504,-11.925923,0.0,meshSize_dummy}; //ptDictNo is 198
Point(199)={2.147552,-11.925923,0.0,meshSize_dummy}; //ptDictNo is 199
Point(200)={2.147552,-5.238441,0.0,meshSize_dummy}; //ptDictNo is 200
Point(201)={-2.464504,-5.238441,0.0,meshSize_dummy}; //ptDictNo is 201
Point(203)={-16.531277,-11.728282,0.0,meshSize_dummy}; //ptDictNo is 203
Point(204)={-11.458014,-11.728282,0.0,meshSize_dummy}; //ptDictNo is 204
Point(205)={-11.458014,-1.351155,0.0,meshSize_dummy}; //ptDictNo is 205
Point(206)={-16.531277,-1.351155,0.0,meshSize_dummy}; //ptDictNo is 206
Point(213)={3.531169,16.067358,6.0,meshSize_dummy}; //ptDictNo is 213
Point(214)={-2.92571,16.067358,6.0,meshSize_dummy}; //ptDictNo is 214
Point(215)={-2.92571,23.907854,6.0,meshSize_dummy}; //ptDictNo is 215
Point(216)={3.531169,23.907854,6.0,meshSize_dummy}; //ptDictNo is 216
Point(238)={21.748793,-12.650693,4.0,meshSize_dummy}; //ptDictNo is 238
Point(239)={12.294077,-12.650693,4.0,meshSize_dummy}; //ptDictNo is 239
Point(240)={12.294077,-2.504169,4.0,meshSize_dummy}; //ptDictNo is 240
Point(241)={21.748793,-2.504169,4.0,meshSize_dummy}; //ptDictNo is 241
Point(263)={17.382293,9.62065,25.0,meshSize_dummy}; //ptDictNo is 263
Point(264)={13.835606,9.62065,25.0,meshSize_dummy}; //ptDictNo is 264
Point(265)={13.835606,17.65411,25.0,meshSize_dummy}; //ptDictNo is 265
Point(266)={17.382293,17.65411,25.0,meshSize_dummy}; //ptDictNo is 266
Point(270)={13.835606,9.62065,5.0,meshSize_dummy}; //ptDictNo is 270
Point(271)={13.835606,17.65411,5.0,meshSize_dummy}; //ptDictNo is 271
Point(276)={17.382293,17.65411,5.0,meshSize_dummy}; //ptDictNo is 276
Point(281)={17.382293,9.62065,5.0,meshSize_dummy}; //ptDictNo is 281
Point(293)={18.750956,7.18115,5.0,meshSize_dummy}; //ptDictNo is 293
Point(294)={12.294077,7.18115,5.0,meshSize_dummy}; //ptDictNo is 294
Point(295)={12.294077,19.864305,5.0,meshSize_dummy}; //ptDictNo is 295
Point(296)={18.750956,19.864305,5.0,meshSize_dummy}; //ptDictNo is 296
Point(318)={0.453285,8.070855,7.0,meshSize_dummy}; //ptDictNo is 318
Point(319)={0.453285,10.397836,7.0,meshSize_dummy}; //ptDictNo is 319
Point(320)={0.453285,10.397836,37.0,meshSize_dummy}; //ptDictNo is 320
Point(321)={0.453285,8.070855,37.0,meshSize_dummy}; //ptDictNo is 321
Point(325)={2.27562,8.070855,37.0,meshSize_dummy}; //ptDictNo is 325
Point(326)={2.27562,8.070855,7.0,meshSize_dummy}; //ptDictNo is 326
Point(330)={2.27562,6.416736,37.0,meshSize_dummy}; //ptDictNo is 330
Point(331)={2.27562,6.416736,7.0,meshSize_dummy}; //ptDictNo is 331
Point(335)={0.453285,6.412888,37.0,meshSize_dummy}; //ptDictNo is 335
Point(336)={0.453285,6.412888,7.0,meshSize_dummy}; //ptDictNo is 336
Point(340)={0.453285,3.64118,37.0,meshSize_dummy}; //ptDictNo is 340
Point(341)={0.453285,3.64118,7.0,meshSize_dummy}; //ptDictNo is 341
Point(345)={4.154026,3.64118,37.0,meshSize_dummy}; //ptDictNo is 345
Point(346)={4.154026,3.64118,7.0,meshSize_dummy}; //ptDictNo is 346
Point(350)={4.154026,5.659766,37.0,meshSize_dummy}; //ptDictNo is 350
Point(351)={4.154026,5.659766,7.0,meshSize_dummy}; //ptDictNo is 351
Point(355)={5.359571,5.659766,37.0,meshSize_dummy}; //ptDictNo is 355
Point(356)={5.359571,5.659766,7.0,meshSize_dummy}; //ptDictNo is 356
Point(360)={5.359571,3.613144,37.0,meshSize_dummy}; //ptDictNo is 360
Point(361)={5.359571,3.613144,7.0,meshSize_dummy}; //ptDictNo is 361
Point(365)={8.667809,3.613144,37.0,meshSize_dummy}; //ptDictNo is 365
Point(366)={8.667809,3.613144,7.0,meshSize_dummy}; //ptDictNo is 366
Point(370)={8.667809,6.412888,37.0,meshSize_dummy}; //ptDictNo is 370
Point(371)={8.667809,6.412888,7.0,meshSize_dummy}; //ptDictNo is 371
Point(375)={6.25672,6.412888,37.0,meshSize_dummy}; //ptDictNo is 375
Point(376)={6.25672,6.412888,7.0,meshSize_dummy}; //ptDictNo is 376
Point(380)={6.25672,7.958711,37.0,meshSize_dummy}; //ptDictNo is 380
Point(381)={6.25672,7.958711,7.0,meshSize_dummy}; //ptDictNo is 381
Point(385)={8.611738,7.958711,37.0,meshSize_dummy}; //ptDictNo is 385
Point(386)={8.611738,7.958711,7.0,meshSize_dummy}; //ptDictNo is 386
Point(390)={8.611738,10.3155,37.0,meshSize_dummy}; //ptDictNo is 390
Point(391)={8.611738,10.3155,7.0,meshSize_dummy}; //ptDictNo is 391
Point(415)={9.521919,2.509053,5.0,meshSize_dummy}; //ptDictNo is 415
Point(416)={-7.570549,2.509053,5.0,meshSize_dummy}; //ptDictNo is 416
Point(417)={-7.570549,2.509053,7.0,meshSize_dummy}; //ptDictNo is 417
Point(418)={9.521919,2.509053,7.0,meshSize_dummy}; //ptDictNo is 418
Point(422)={9.521919,11.899359,7.0,meshSize_dummy}; //ptDictNo is 422
Point(423)={9.521919,11.899359,5.0,meshSize_dummy}; //ptDictNo is 423
Point(427)={-7.570549,11.899359,7.0,meshSize_dummy}; //ptDictNo is 427
Point(428)={-7.570549,11.899359,5.0,meshSize_dummy}; //ptDictNo is 428
Point(440)={-4.504013,4.249952,5.0,meshSize_dummy}; //ptDictNo is 440
Point(441)={-5.987913,6.412888,5.0,meshSize_dummy}; //ptDictNo is 441
Point(442)={-5.935159,9.683669,5.0,meshSize_dummy}; //ptDictNo is 442
Point(443)={-2.822642,10.73876,5.0,meshSize_dummy}; //ptDictNo is 443
Point(444)={6.778683,10.73876,5.0,meshSize_dummy}; //ptDictNo is 444
Point(445)={8.097546,4.249952,5.0,meshSize_dummy}; //ptDictNo is 445
Point(499)={2.147552,-11.925923,5.0,meshSize_dummy}; //ptDictNo is 499
Point(500)={-2.464504,-11.925923,5.0,meshSize_dummy}; //ptDictNo is 500
Point(501)={-2.464504,-5.238441,5.0,meshSize_dummy}; //ptDictNo is 501
Point(502)={2.147552,-5.238441,5.0,meshSize_dummy}; //ptDictNo is 502
Point(524)={-11.458014,-11.728282,6.0,meshSize_dummy}; //ptDictNo is 524
Point(525)={-16.531277,-11.728282,6.0,meshSize_dummy}; //ptDictNo is 525
Point(526)={-16.531277,-1.351155,6.0,meshSize_dummy}; //ptDictNo is 526
Point(527)={-11.458014,-1.351155,6.0,meshSize_dummy}; //ptDictNo is 527
Line(1)={1,2};
Line(2)={2,3};
Line(3)={3,4};
Line(4)={4,1};
Line(5)={6,7};
Line(6)={7,8};
Line(7)={8,9};
Line(8)={9,6};
Line(10)={4,8};
Line(12)={7,1};
Line(14)={3,9};
Line(20)={6,2};
Line(25)={31,32};
Line(26)={32,33};
Line(27)={33,34};
Line(28)={34,31};
Line(29)={36,37};
Line(30)={37,38};
Line(31)={38,39};
Line(32)={39,36};
Line(34)={33,39};
Line(36)={38,34};
Line(38)={31,37};
Line(40)={36,32};
Line(58)={34,6};
Line(60)={7,33};
Line(64)={8,32};
Line(66)={31,9};
Line(74)={38,2};
Line(76)={3,37};
Line(87)={39,1};
Line(91)={4,36};
Line(141)={176,177};
Line(142)={177,178};
Line(143)={178,179};
Line(144)={179,176};
Line(145)={181,182};
Line(146)={182,183};
Line(147)={183,184};
Line(148)={184,181};
Line(149)={186,187};
Line(150)={187,188};
Line(151)={188,189};
Line(152)={189,186};
Line(153)={191,192};
Line(154)={192,193};
Line(155)={193,194};
Line(156)={194,195};
Line(157)={195,196};
Line(158)={196,191};
Line(159)={198,199};
Line(160)={199,200};
Line(161)={200,201};
Line(162)={201,198};
Line(163)={203,204};
Line(164)={204,205};
Line(165)={205,206};
Line(166)={206,203};
Line(171)={213,214};
Line(172)={214,215};
Line(173)={215,216};
Line(174)={216,213};
Line(176)={214,176};
Line(178)={179,215};
Line(182)={178,216};
Line(186)={177,213};
Line(191)={238,239};
Line(192)={239,240};
Line(193)={240,241};
Line(194)={241,238};
Line(196)={239,181};
Line(198)={184,240};
Line(202)={183,241};
Line(206)={182,238};
Line(211)={263,264};
Line(212)={264,265};
Line(213)={265,266};
Line(214)={266,263};
Line(216)={264,270};
Line(217)={270,271};
Line(218)={271,265};
Line(221)={271,276};
Line(222)={276,266};
Line(225)={276,281};
Line(226)={281,263};
Line(229)={281,270};
Line(235)={293,294};
Line(236)={294,295};
Line(237)={295,296};
Line(238)={296,293};
Line(240)={294,186};
Line(242)={189,295};
Line(246)={188,296};
Line(250)={187,293};
Line(255)={318,319};
Line(256)={319,320};
Line(257)={320,321};
Line(258)={321,318};
Line(260)={321,325};
Line(261)={325,326};
Line(262)={326,318};
Line(264)={325,330};
Line(265)={330,331};
Line(266)={331,326};
Line(268)={330,335};
Line(269)={335,336};
Line(270)={336,331};
Line(272)={335,340};
Line(273)={340,341};
Line(274)={341,336};
Line(276)={340,345};
Line(277)={345,346};
Line(278)={346,341};
Line(280)={345,350};
Line(281)={350,351};
Line(282)={351,346};
Line(284)={350,355};
Line(285)={355,356};
Line(286)={356,351};
Line(288)={355,360};
Line(289)={360,361};
Line(290)={361,356};
Line(292)={360,365};
Line(293)={365,366};
Line(294)={366,361};
Line(296)={365,370};
Line(297)={370,371};
Line(298)={371,366};
Line(300)={370,375};
Line(301)={375,376};
Line(302)={376,371};
Line(304)={375,380};
Line(305)={380,381};
Line(306)={381,376};
Line(308)={380,385};
Line(309)={385,386};
Line(310)={386,381};
Line(312)={385,390};
Line(313)={390,391};
Line(314)={391,386};
Line(316)={319,391};
Line(318)={390,320};
Line(335)={415,416};
Line(336)={416,417};
Line(337)={417,418};
Line(338)={418,415};
Line(340)={418,422};
Line(341)={422,423};
Line(342)={423,415};
Line(344)={422,427};
Line(345)={427,428};
Line(346)={428,423};
Line(348)={416,428};
Line(350)={427,417};
Line(355)={440,441};
Line(356)={441,442};
Line(357)={442,443};
Line(358)={443,444};
Line(359)={444,445};
Line(360)={445,440};
Line(382)={191,441};
Line(384)={440,192};
Line(387)={445,193};
Line(391)={444,194};
Line(395)={443,195};
Line(399)={442,196};
Line(405)={499,500};
Line(406)={500,501};
Line(407)={501,502};
Line(408)={502,499};
Line(410)={500,198};
Line(412)={201,501};
Line(416)={200,502};
Line(420)={199,499};
Line(425)={524,525};
Line(426)={525,526};
Line(427)={526,527};
Line(428)={527,524};
Line(430)={525,203};
Line(432)={206,526};
Line(436)={205,527};
Line(440)={204,524};
Line Loop(1)={1,2,3,4};
Line Loop(2)={5,6,7,8};
Line Loop(3)={-4,10,-6,12};
Line Loop(4)={-3,14,-7,-10};
Line Loop(5)={-1,-12,-5,20};
Line Loop(6)={-2,-20,-8,-14};
Line Loop(7)={25,26,27,28};
Line Loop(8)={29,30,31,32};
Line Loop(9)={-27,34,-31,36};
Line Loop(10)={-25,38,-29,40};
Line Loop(11)={-26,-40,-32,-34};
Line Loop(12)={-28,-36,-30,-38};
Line Loop(15)={27,58,5,60};
Line Loop(16)={26,-60,6,64};
Line Loop(17)={28,66,8,-58};
Line Loop(18)={25,-64,7,-66};
Line Loop(19)={30,74,2,76};
Line Loop(22)={-74,31,87,1};
Line Loop(23)={-76,3,91,29};
Line Loop(24)={32,-91,4,-87};
Line Loop(29)={60,34,87,-12};
Line Loop(30)={58,20,-74,36};
Line Loop(35)={-14,76,-38,66};
Line Loop(36)={141,142,143,144};
Line Loop(37)={145,146,147,148};
Line Loop(38)={149,150,151,152};
Line Loop(39)={153,154,155,156,157,158};
Line Loop(40)={159,160,161,162};
Line Loop(41)={163,164,165,166};
Line Loop(43)={171,172,173,174};
Line Loop(44)={-172,176,-144,178};
Line Loop(45)={-173,-178,-143,182};
Line Loop(46)={-174,-182,-142,186};
Line Loop(47)={-171,-186,-141,-176};
Line Loop(48)={191,192,193,194};
Line Loop(49)={-192,196,-148,198};
Line Loop(50)={-193,-198,-147,202};
Line Loop(51)={-194,-202,-146,206};
Line Loop(52)={-191,-206,-145,-196};
Line Loop(53)={211,212,213,214};
Line Loop(54)={-212,216,217,218};
Line Loop(55)={-213,-218,221,222};
Line Loop(56)={-214,-222,225,226};
Line Loop(57)={-211,-226,229,-216};
Line Loop(58)={-229,-225,-221,-217};
Line Loop(59)={235,236,237,238};
Line Loop(60)={-236,240,-152,242};
Line Loop(61)={-237,-242,-151,246};
Line Loop(62)={-238,-246,-150,250};
Line Loop(63)={-235,-250,-149,-240};
Line Loop(64)={255,256,257,258};
Line Loop(65)={-258,260,261,262};
Line Loop(66)={-261,264,265,266};
Line Loop(67)={-265,268,269,270};
Line Loop(68)={-269,272,273,274};
Line Loop(69)={-273,276,277,278};
Line Loop(70)={-277,280,281,282};
Line Loop(71)={-281,284,285,286};
Line Loop(72)={-285,288,289,290};
Line Loop(73)={-289,292,293,294};
Line Loop(74)={-293,296,297,298};
Line Loop(75)={-297,300,301,302};
Line Loop(76)={-301,304,305,306};
Line Loop(77)={-305,308,309,310};
Line Loop(78)={-309,312,313,314};
Line Loop(79)={-256,316,-313,318};
Line Loop(80)={-257,-318,-312,-308,-304,-300,-296,-292,-288,-284,-280,-276,-272,-268,-264,-260};
Line Loop(81)={335,336,337,338};
Line Loop(82)={-338,340,341,342};
Line Loop(83)={-341,344,345,346};
Line Loop(84)={-336,348,-345,350};
Line Loop(85)={-335,-342,-346,-348};
Line Loop(86)={355,356,357,358,359,360};
Line Loop(87)={-255,-262,-266,-270,-274,-278,-282,-286,-290,-294,-298,-302,-306,-310,-314,-316};
Line Loop(88)={-337,-350,-344,-340};
Line Loop(89)={-153,382,-355,384};
Line Loop(90)={-384,-360,387,-154};
Line Loop(91)={-387,-359,391,-155};
Line Loop(92)={-391,-358,395,-156};
Line Loop(93)={-395,-357,399,-157};
Line Loop(94)={-382,-158,-399,-356};
Line Loop(95)={405,406,407,408};
Line Loop(96)={-406,410,-162,412};
Line Loop(97)={-407,-412,-161,416};
Line Loop(98)={-408,-416,-160,420};
Line Loop(99)={-405,-420,-159,-410};
Line Loop(100)={425,426,427,428};
Line Loop(101)={-426,430,-166,432};
Line Loop(102)={-427,-432,-165,436};
Line Loop(103)={-428,-436,-164,440};
Line Loop(104)={-425,-440,-163,-430};
Plane Surface(1)={1};
Plane Surface(2)={2};
Plane Surface(3)={3};
Plane Surface(4)={4};
Plane Surface(5)={5};
Plane Surface(6)={6};
Plane Surface(7)={7};
Plane Surface(8)={8};
Plane Surface(9)={9};
Plane Surface(10)={10};
Plane Surface(11)={11};
Plane Surface(12)={12};
Plane Surface(15)={15};
Plane Surface(16)={16};
Plane Surface(17)={17};
Plane Surface(18)={18};
Plane Surface(19)={19};
Plane Surface(22)={22};
Plane Surface(23)={23};
Plane Surface(24)={24};
Plane Surface(29)={29};
Plane Surface(30)={30};
Plane Surface(35)={35,36,37,38,39,40,41};
Plane Surface(37)={43};
Plane Surface(38)={44};
Plane Surface(39)={45};
Plane Surface(40)={46};
Plane Surface(41)={47};
Plane Surface(42)={48};
Plane Surface(43)={49};
Plane Surface(44)={50};
Plane Surface(45)={51};
Plane Surface(46)={52};
Plane Surface(47)={53};
Plane Surface(48)={54};
Plane Surface(49)={55};
Plane Surface(50)={56};
Plane Surface(51)={57};
Plane Surface(52)={58,59};
Plane Surface(53)={60};
Plane Surface(54)={61};
Plane Surface(55)={62};
Plane Surface(56)={63};
Plane Surface(57)={64};
Plane Surface(58)={65};
Plane Surface(59)={66};
Plane Surface(60)={67};
Plane Surface(61)={68};
Plane Surface(62)={69};
Plane Surface(63)={70};
Plane Surface(64)={71};
Plane Surface(65)={72};
Plane Surface(66)={73};
Plane Surface(67)={74};
Plane Surface(68)={75};
Plane Surface(69)={76};
Plane Surface(70)={77};
Plane Surface(71)={78};
Plane Surface(72)={79};
Plane Surface(73)={80};
Plane Surface(74)={81};
Plane Surface(75)={82};
Plane Surface(76)={83};
Plane Surface(77)={84};
Plane Surface(78)={85,86};
Plane Surface(79)={87,88};
Plane Surface(80)={89};
Plane Surface(81)={90};
Plane Surface(82)={91};
Plane Surface(83)={92};
Plane Surface(84)={93};
Plane Surface(85)={94};
Plane Surface(86)={95};
Plane Surface(87)={96};
Plane Surface(88)={97};
Plane Surface(89)={98};
Plane Surface(90)={99};
Plane Surface(91)={100};
Plane Surface(92)={101};
Plane Surface(93)={102};
Plane Surface(94)={103};
Plane Surface(95)={104};
Surface Loop(1)={1,2,3,4,5,6};
Volume(1)={1};
Surface Loop(2)={7,8,9,10,11,12};
Volume(2)={2};
Surface Loop(3)={7,2,15,16,17,18};
Volume(3)={3};
Surface Loop(4)={19,8,1,22,23,24};
Volume(4)={4};
Surface Loop(5)={15,5,22,9,29,30};
Volume(5)={5};
Surface Loop(6)={6,17,12,19,35,30,37,38,39,40,41,42,43,44,45,46,47,48,49,50,51,52,53,54,55,56,57,58,59,60,61,62,63,64,65,66,67,68,69,70,71,72,73,74,75,76,77,78,79,80,81,82,83,84,85,86,87,88,89,90,91,92,93,94,95};
Volume(6)={6};

//Transfinite Line {3, 1, 7, 5, 10, 12, 14, 76, 2, 74, 4, 87, 91, 6, 64, 60, 27, 26, 34, 40, 29, 31, 32, 25, 36, 38, 30, 28, 58, 66, 20, 8} = 10 Using Progression 1;
//Transfinite Surface{1:12,15:18,19,22:24,29:30};
//Transfinite Volume{1:5};
//Recombine Surface{1:12,15:18,19,22:24,29:30};
//Hide {Surface{1,2,5,6,3,16,24,29};}
//Hide {Surface{37:95};}
Physical Volume("domain")={1:6};

Physical Surface("inlet") = {3};
Physical Surface("outlet") = {11};
Physical Surface("symmetry")={24,16,29};
Physical Surface("buildings") = {37:95};
Physical Surface("ground")={4,10,18,23,35};