meshSize_dummy2=6;
meshSize_test=6;

Point(1)={-74.040813,-84.999138,0.0,meshSize_dummy2}; //ptDictNo is 1
Point(2)={-74.040813,115.000862,0.0,meshSize_dummy2}; //ptDictNo is 2
Point(3)={75.959187,115.000862,0.0,meshSize_dummy2}; //ptDictNo is 3
Point(4)={75.959187,-84.999138,0.0,meshSize_dummy2}; //ptDictNo is 4
Point(6)={-10.575765,-17.264061,0.0,meshSize_dummy2}; //ptDictNo is 6
Point(7)={19.062511,-17.264061,0.0,meshSize_dummy2}; //ptDictNo is 7
Point(8)={19.062511,5.799907,0.0,meshSize_dummy2}; //ptDictNo is 8
Point(9)={-10.575765,5.799907,0.0,meshSize_dummy2}; //ptDictNo is 9
Point(13)={-74.040813,115.000862,100.0,meshSize_dummy2}; //ptDictNo is 13
Point(14)={75.959187,115.000862,100.0,meshSize_dummy2}; //ptDictNo is 14
Point(18)={-74.040813,-84.999138,100.0,meshSize_dummy2}; //ptDictNo is 18
Point(19)={75.959187,-84.999138,100.0,meshSize_dummy2}; //ptDictNo is 19
Point(36)={19.062511,-17.264061,33.250422,meshSize_dummy2}; //ptDictNo is 36
Point(37)={-10.575765,-17.264061,33.250422,meshSize_dummy2}; //ptDictNo is 37
Point(38)={-10.575765,5.799907,33.250422,meshSize_dummy2}; //ptDictNo is 38
Point(39)={19.062511,5.799907,33.250422,meshSize_dummy2}; //ptDictNo is 39
Line(1)={1,2};
Line(2)={2,3};
Line(3)={3,4};
Line(4)={4,1};
Line(5)={6,7};
Line(6)={7,8};
Line(7)={8,9};
Line(8)={9,6};
Line(10)={2,13};
Line(11)={13,14};
Line(12)={14,3};
Line(14)={13,18};
Line(15)={18,19};
Line(16)={19,14};
Line(18)={1,18};
Line(24)={19,4};
Line(29)={36,37};
Line(30)={37,38};
Line(31)={38,39};
Line(32)={39,36};
Line(34)={37,6};
Line(36)={9,38};
Line(40)={8,39};
Line(44)={7,36};
Line Loop(1)={1,2,3,4};
Line Loop(2)={5,6,7,8};
Line Loop(3)={-2,10,11,12};
Line Loop(4)={-11,14,15,16};
Line Loop(5)={-1,18,-14,-10};
Line Loop(6)={-3,-12,-16,24};
Line Loop(7)={-4,-24,-15,-18};
Line Loop(8)={29,30,31,32};
Line Loop(9)={-30,34,-8,36};
Line Loop(10)={-31,-36,-7,40};
Line Loop(11)={-32,-40,-6,44};
Line Loop(12)={-29,-44,-5,-34};
Plane Surface(1)={1,2};
Plane Surface(2)={3};
Plane Surface(3)={4};
Plane Surface(4)={5};
Plane Surface(5)={6};
Plane Surface(6)={7};
Plane Surface(7)={8};
Plane Surface(8)={9};
Plane Surface(9)={10};
Plane Surface(10)={11};
Plane Surface(11)={12};
Surface Loop(1)={1,2,3,4,5,6,7,8,9,10,11};
Volume(1)={1};

Physical Surface("inlet") = {6};
Physical Surface("outlet") = {2};
Physical Surface("ground") = {1};
Physical Surface("lateral") = {4,5,3};
Physical Surface("buildings") = {7:11};
Physical Volume("domain")={1};