meshSize_dummy2=6;
meshSize_box2=3;

Point(1)={63.976746,-18.851784,20.0,meshSize_dummy2}; //ptDictNo is 1
Point(2)={-15.292964,-18.851784,20.0,meshSize_dummy2}; //ptDictNo is 2
Point(3)={-15.292964,52.362061,20.0,meshSize_dummy2}; //ptDictNo is 3
Point(4)={63.976746,52.362061,20.0,meshSize_dummy2}; //ptDictNo is 4
Point(8)={-15.292964,-18.851784,0.0,meshSize_dummy2}; //ptDictNo is 8
Point(9)={-15.292964,52.362061,0.0,meshSize_dummy2}; //ptDictNo is 9
Point(14)={63.976746,52.362061,0.0,meshSize_dummy2}; //ptDictNo is 14
Point(19)={63.976746,-18.851784,0.0,meshSize_dummy2}; //ptDictNo is 19
Point(31)={-74.040813,-84.999138,0.0,meshSize_dummy2}; //ptDictNo is 31
Point(32)={-74.040813,115.000862,0.0,meshSize_dummy2}; //ptDictNo is 32
Point(33)={125.959187,115.000862,0.0,meshSize_dummy2}; //ptDictNo is 33
Point(34)={125.959187,-84.999138,0.0,meshSize_dummy2}; //ptDictNo is 34
Point(38)={-74.040813,115.000862,100.0,meshSize_dummy2}; //ptDictNo is 38
Point(39)={125.959187,115.000862,100.0,meshSize_dummy2}; //ptDictNo is 39
Point(43)={-74.040813,-84.999138,100.0,meshSize_dummy2}; //ptDictNo is 43
Point(44)={125.959187,-84.999138,100.0,meshSize_dummy2}; //ptDictNo is 44
Point(86)={50.031731,4.345686,15.0,meshSize_box2}; //ptDictNo is 86
Point(87)={40.031731,4.345686,15.0,meshSize_box2}; //ptDictNo is 87
Point(88)={40.031731,14.345686,15.0,meshSize_box2}; //ptDictNo is 88
Point(89)={50.031731,14.345686,15.0,meshSize_box2}; //ptDictNo is 89
Point(93)={40.031731,4.345686,0.0,meshSize_box2}; //ptDictNo is 93
Point(94)={40.031731,14.345686,0.0,meshSize_box2}; //ptDictNo is 94
Point(99)={50.031731,14.345686,0.0,meshSize_box2}; //ptDictNo is 99
Point(104)={50.031731,4.345686,0.0,meshSize_box2}; //ptDictNo is 104
Point(111)={29.60816,23.665721,15.0,meshSize_box2}; //ptDictNo is 111
Point(112)={19.60816,23.665721,15.0,meshSize_box2}; //ptDictNo is 112
Point(113)={19.60816,33.665721,15.0,meshSize_box2}; //ptDictNo is 113
Point(114)={29.60816,33.665721,15.0,meshSize_box2}; //ptDictNo is 114
Point(118)={19.60816,23.665721,0.0,meshSize_box2}; //ptDictNo is 118
Point(119)={19.60816,33.665721,0.0,meshSize_box2}; //ptDictNo is 119
Point(124)={29.60816,33.665721,0.0,meshSize_box2}; //ptDictNo is 124
Point(129)={29.60816,23.665721,0.0,meshSize_box2}; //ptDictNo is 129
Point(136)={5.885592,4.023452,15.0,meshSize_box2}; //ptDictNo is 136
Point(137)={-4.114408,4.023452,15.0,meshSize_box2}; //ptDictNo is 137
Point(138)={-4.114408,14.023452,15.0,meshSize_box2}; //ptDictNo is 138
Point(139)={5.885592,14.023452,15.0,meshSize_box2}; //ptDictNo is 139
Point(143)={-4.114408,4.023452,0.0,meshSize_box2}; //ptDictNo is 143
Point(144)={-4.114408,14.023452,0.0,meshSize_box2}; //ptDictNo is 144
Point(149)={5.885592,14.023452,0.0,meshSize_box2}; //ptDictNo is 149
Point(154)={5.885592,4.023452,0.0,meshSize_box2}; //ptDictNo is 154
Line(1)={1,2};
Line(2)={2,3};
Line(3)={3,4};
Line(4)={4,1};
Line(6)={2,8};
Line(7)={8,9};
Line(8)={9,3};
Line(11)={9,14};
Line(12)={14,4};
Line(15)={14,19};
Line(16)={19,1};
Line(19)={19,8};
Line(25)={31,32};
Line(26)={32,33};
Line(27)={33,34};
Line(28)={34,31};
Line(30)={32,38};
Line(31)={38,39};
Line(32)={39,33};
Line(34)={38,43};
Line(35)={43,44};
Line(36)={44,39};
Line(38)={31,43};
Line(44)={44,34};
Line(69)={86,87};
Line(70)={87,88};
Line(71)={88,89};
Line(72)={89,86};
Line(74)={87,93};
Line(75)={93,94};
Line(76)={94,88};
Line(79)={94,99};
Line(80)={99,89};
Line(83)={99,104};
Line(84)={104,86};
Line(87)={104,93};
Line(89)={111,112};
Line(90)={112,113};
Line(91)={113,114};
Line(92)={114,111};
Line(94)={112,118};
Line(95)={118,119};
Line(96)={119,113};
Line(99)={119,124};
Line(100)={124,114};
Line(103)={124,129};
Line(104)={129,111};
Line(107)={129,118};
Line(109)={136,137};
Line(110)={137,138};
Line(111)={138,139};
Line(112)={139,136};
Line(114)={137,143};
Line(115)={143,144};
Line(116)={144,138};
Line(119)={144,149};
Line(120)={149,139};
Line(123)={149,154};
Line(124)={154,136};
Line(127)={154,143};
Line Loop(1)={1,2,3,4};
Line Loop(2)={-2,6,7,8};
Line Loop(3)={-3,-8,11,12};
Line Loop(4)={-4,-12,15,16};
Line Loop(5)={-1,-16,19,-6};
Line Loop(6)={-19,-15,-11,-7};
Line Loop(7)={25,26,27,28};
Line Loop(8)={-26,30,31,32};
Line Loop(9)={-31,34,35,36};
Line Loop(10)={-25,38,-34,-30};
Line Loop(11)={-27,-32,-36,44};
Line Loop(12)={-28,-44,-35,-38};
Line Loop(18)={69,70,71,72};
Line Loop(19)={-70,74,75,76};
Line Loop(20)={-71,-76,79,80};
Line Loop(21)={-72,-80,83,84};
Line Loop(22)={-69,-84,87,-74};
Line Loop(23)={89,90,91,92};
Line Loop(24)={-90,94,95,96};
Line Loop(25)={-91,-96,99,100};
Line Loop(26)={-92,-100,103,104};
Line Loop(27)={-89,-104,107,-94};
Line Loop(28)={109,110,111,112};
Line Loop(29)={-110,114,115,116};
Line Loop(30)={-111,-116,119,120};
Line Loop(31)={-112,-120,123,124};
Line Loop(32)={-109,-124,127,-114};
Line Loop(34)={-87,-83,-79,-75};
Line Loop(35)={-107,-103,-99,-95};
Line Loop(36)={-127,-123,-119,-115};
Plane Surface(1)={1};
Plane Surface(2)={2};
Plane Surface(3)={3};
Plane Surface(4)={4};
Plane Surface(5)={5};
Plane Surface(6)={6,7};
Plane Surface(7)={8};
Plane Surface(8)={9};
Plane Surface(9)={10};
Plane Surface(10)={11};
Plane Surface(11)={12};
Plane Surface(17)={18};
Plane Surface(18)={19};
Plane Surface(19)={20};
Plane Surface(20)={21};
Plane Surface(21)={22};
Plane Surface(22)={23};
Plane Surface(23)={24};
Plane Surface(24)={25};
Plane Surface(25)={26};
Plane Surface(26)={27};
Plane Surface(27)={28};
Plane Surface(28)={29};
Plane Surface(29)={30};
Plane Surface(30)={31};
Plane Surface(31)={32};
Plane Surface(32)={6,34,35,36};
Surface Loop(1)={1,2,3,4,5,6,7,8,9,10,11};
Volume(1)={1};
Surface Loop(2)={1,2,3,4,5,17,18,19,20,21,22,23,24,25,26,27,28,29,30,31,32};
Volume(2)={2};

Physical Surface("inlet") = {11};
Physical Surface("outlet") = {7};
Physical Surface("ground") = {6,32};
Physical Surface("lateral") = {9,10,8};
Physical Surface("buildings") = {17:21,27:31,22:26};
Physical Volume("domain")={1,2};

//Transfinite Line {13, 92, 88, 77, 80, 79, 78, 84, 16, 82, 15, 14, 5, 42, 8, 38, 39, 48, 6, 52, 40, 37, 7, 72, 10, 68, 60, 59, 58, 57, 62, 9, 11, 64, 12, 44} = 10 Using Progression 1;
Transfinite Surface {1:5};
Recombine Surface {1:5};
