meshSize_dummy2=6;

Point(1)={-74.040813,-84.999138,0.0,meshSize_dummy2}; //ptDictNo is 1
Point(2)={-74.040813,115.000862,0.0,meshSize_dummy2}; //ptDictNo is 2
Point(3)={125.959187,115.000862,0.0,meshSize_dummy2}; //ptDictNo is 3
Point(4)={125.959187,-84.999138,0.0,meshSize_dummy2}; //ptDictNo is 4
Point(6)={40.031731,4.345686,0.0,meshSize_dummy2}; //ptDictNo is 6
Point(7)={50.031731,4.345686,0.0,meshSize_dummy2}; //ptDictNo is 7
Point(8)={50.031731,14.345686,0.0,meshSize_dummy2}; //ptDictNo is 8
Point(9)={40.031731,14.345686,0.0,meshSize_dummy2}; //ptDictNo is 9
Point(11)={19.60816,23.665721,0.0,meshSize_dummy2}; //ptDictNo is 11
Point(12)={29.60816,23.665721,0.0,meshSize_dummy2}; //ptDictNo is 12
Point(13)={29.60816,33.665721,0.0,meshSize_dummy2}; //ptDictNo is 13
Point(14)={19.60816,33.665721,0.0,meshSize_dummy2}; //ptDictNo is 14
Point(16)={-4.114408,4.023452,0.0,meshSize_dummy2}; //ptDictNo is 16
Point(17)={5.885592,4.023452,0.0,meshSize_dummy2}; //ptDictNo is 17
Point(18)={5.885592,14.023452,0.0,meshSize_dummy2}; //ptDictNo is 18
Point(19)={-4.114408,14.023452,0.0,meshSize_dummy2}; //ptDictNo is 19
Point(23)={-74.040813,115.000862,100.0,meshSize_dummy2}; //ptDictNo is 23
Point(24)={125.959187,115.000862,100.0,meshSize_dummy2}; //ptDictNo is 24
Point(28)={-74.040813,-84.999138,100.0,meshSize_dummy2}; //ptDictNo is 28
Point(29)={125.959187,-84.999138,100.0,meshSize_dummy2}; //ptDictNo is 29
Point(46)={50.031731,4.345686,15.0,meshSize_dummy2}; //ptDictNo is 46
Point(47)={40.031731,4.345686,15.0,meshSize_dummy2}; //ptDictNo is 47
Point(48)={40.031731,14.345686,15.0,meshSize_dummy2}; //ptDictNo is 48
Point(49)={50.031731,14.345686,15.0,meshSize_dummy2}; //ptDictNo is 49
Point(71)={29.60816,23.665721,15.0,meshSize_dummy2}; //ptDictNo is 71
Point(72)={19.60816,23.665721,15.0,meshSize_dummy2}; //ptDictNo is 72
Point(73)={19.60816,33.665721,15.0,meshSize_dummy2}; //ptDictNo is 73
Point(74)={29.60816,33.665721,15.0,meshSize_dummy2}; //ptDictNo is 74
Point(96)={5.885592,4.023452,15.0,meshSize_dummy2}; //ptDictNo is 96
Point(97)={-4.114408,4.023452,15.0,meshSize_dummy2}; //ptDictNo is 97
Point(98)={-4.114408,14.023452,15.0,meshSize_dummy2}; //ptDictNo is 98
Point(99)={5.885592,14.023452,15.0,meshSize_dummy2}; //ptDictNo is 99
Line(1)={1,2};
Line(2)={2,3};
Line(3)={3,4};
Line(4)={4,1};
Line(5)={6,7};
Line(6)={7,8};
Line(7)={8,9};
Line(8)={9,6};
Line(9)={11,12};
Line(10)={12,13};
Line(11)={13,14};
Line(12)={14,11};
Line(13)={16,17};
Line(14)={17,18};
Line(15)={18,19};
Line(16)={19,16};
Line(18)={2,23};
Line(19)={23,24};
Line(20)={24,3};
Line(22)={23,28};
Line(23)={28,29};
Line(24)={29,24};
Line(26)={1,28};
Line(32)={29,4};
Line(37)={46,47};
Line(38)={47,48};
Line(39)={48,49};
Line(40)={49,46};
Line(42)={47,6};
Line(44)={9,48};
Line(48)={8,49};
Line(52)={7,46};
Line(57)={71,72};
Line(58)={72,73};
Line(59)={73,74};
Line(60)={74,71};
Line(62)={72,11};
Line(64)={14,73};
Line(68)={13,74};
Line(72)={12,71};
Line(77)={96,97};
Line(78)={97,98};
Line(79)={98,99};
Line(80)={99,96};
Line(82)={97,16};
Line(84)={19,98};
Line(88)={18,99};
Line(92)={17,96};
Line Loop(1)={1,2,3,4};
Line Loop(2)={5,6,7,8};
Line Loop(3)={9,10,11,12};
Line Loop(4)={13,14,15,16};
Line Loop(5)={-2,18,19,20};
Line Loop(6)={-19,22,23,24};
Line Loop(7)={-1,26,-22,-18};
Line Loop(8)={-3,-20,-24,32};
Line Loop(9)={-4,-32,-23,-26};
Line Loop(10)={37,38,39,40};
Line Loop(11)={-38,42,-8,44};
Line Loop(12)={-39,-44,-7,48};
Line Loop(13)={-40,-48,-6,52};
Line Loop(14)={-37,-52,-5,-42};
Line Loop(15)={57,58,59,60};
Line Loop(16)={-58,62,-12,64};
Line Loop(17)={-59,-64,-11,68};
Line Loop(18)={-60,-68,-10,72};
Line Loop(19)={-57,-72,-9,-62};
Line Loop(20)={77,78,79,80};
Line Loop(21)={-78,82,-16,84};
Line Loop(22)={-79,-84,-15,88};
Line Loop(23)={-80,-88,-14,92};
Line Loop(24)={-77,-92,-13,-82};
Plane Surface(1)={1,2,3,4};
Plane Surface(2)={5};
Plane Surface(3)={6};
Plane Surface(4)={7};
Plane Surface(5)={8};
Plane Surface(6)={9};
Plane Surface(7)={10};
Plane Surface(8)={11};
Plane Surface(9)={12};
Plane Surface(10)={13};
Plane Surface(11)={14};
Plane Surface(12)={15};
Plane Surface(13)={16};
Plane Surface(14)={17};
Plane Surface(15)={18};
Plane Surface(16)={19};
Plane Surface(17)={20};
Plane Surface(18)={21};
Plane Surface(19)={22};
Plane Surface(20)={23};
Plane Surface(21)={24};
Surface Loop(1)={1,2,3,4,5,6,7,8,9,10,11,12,13,14,15,16,17,18,19,20,21};
Volume(1)={1};

Physical Surface("inlet") = {6};
Physical Surface("outlet") = {2};
Physical Surface("ground") = {1};
Physical Surface("lateral") = {4,5,3};
Physical Surface("buildings") = {7:21};
Physical Volume("domain")={1};

Transfinite Line {13, 92, 88, 77, 80, 79, 78, 84, 16, 82, 15, 14, 5, 42, 8, 38, 39, 48, 6, 52, 40, 37, 7, 72, 10, 68, 60, 59, 58, 57, 62, 9, 11, 64, 12, 44} = 10 Using Progression 1;
Transfinite Surface {7:21};