meshSizeLevel_0=39.4205246785;
meshSizeLevel_1=19.7102623392;
meshSizeLevel_2=9.85513116962;
meshSizeLevel_3=4.92756558481;

Point(1)={809703.460107,818142.074494,81.900000,meshSizeLevel_0}; //ptDictNo is 1
Point(2)={809703.460107,818142.074494,7.200000,meshSizeLevel_0}; //ptDictNo is 2
Point(3)={810079.600000,818142.074494,7.200000,meshSizeLevel_0}; //ptDictNo is 3
Point(4)={810079.600000,818142.074494,81.900000,meshSizeLevel_0}; //ptDictNo is 4
Point(8)={810079.600000,818925.164000,7.200000,meshSizeLevel_0}; //ptDictNo is 8
Point(9)={810079.600000,818925.164000,81.900000,meshSizeLevel_0}; //ptDictNo is 9
Point(13)={809703.460107,818925.164000,7.200000,meshSizeLevel_0}; //ptDictNo is 13
Point(14)={809703.460107,818925.164000,81.900000,meshSizeLevel_0}; //ptDictNo is 14
Point(33)={812470.320214,818142.074494,7.200000,meshSizeLevel_0}; //ptDictNo is 33
Point(34)={812470.320214,818142.074494,81.900000,meshSizeLevel_0}; //ptDictNo is 34
Point(38)={812470.320214,818925.164000,7.200000,meshSizeLevel_0}; //ptDictNo is 38
Point(39)={812470.320214,818925.164000,81.900000,meshSizeLevel_0}; //ptDictNo is 39
Point(63)={812846.460107,818142.074494,7.200000,meshSizeLevel_0}; //ptDictNo is 63
Point(64)={812846.460107,818142.074494,81.900000,meshSizeLevel_0}; //ptDictNo is 64
Point(68)={812846.460107,818925.164000,7.200000,meshSizeLevel_0}; //ptDictNo is 68
Point(69)={812846.460107,818925.164000,81.900000,meshSizeLevel_0}; //ptDictNo is 69
Point(98)={810079.600000,820501.984987,7.200000,meshSizeLevel_0}; //ptDictNo is 98
Point(99)={810079.600000,820501.984987,81.900000,meshSizeLevel_0}; //ptDictNo is 99
Point(103)={809703.460107,820501.984987,7.200000,meshSizeLevel_0}; //ptDictNo is 103
Point(104)={809703.460107,820501.984987,81.900000,meshSizeLevel_0}; //ptDictNo is 104
Point(128)={812846.460107,820501.984987,7.200000,meshSizeLevel_0}; //ptDictNo is 128
Point(129)={812846.460107,820501.984987,81.900000,meshSizeLevel_0}; //ptDictNo is 129
Point(133)={812470.320214,820501.984987,7.200000,meshSizeLevel_0}; //ptDictNo is 133
Point(134)={812470.320214,820501.984987,81.900000,meshSizeLevel_0}; //ptDictNo is 134
Point(158)={810079.600000,821285.074494,7.200000,meshSizeLevel_0}; //ptDictNo is 158
Point(159)={810079.600000,821285.074494,81.900000,meshSizeLevel_0}; //ptDictNo is 159
Point(163)={809703.460107,821285.074494,7.200000,meshSizeLevel_0}; //ptDictNo is 163
Point(164)={809703.460107,821285.074494,81.900000,meshSizeLevel_0}; //ptDictNo is 164
Point(188)={812470.320214,821285.074494,7.200000,meshSizeLevel_0}; //ptDictNo is 188
Point(189)={812470.320214,821285.074494,81.900000,meshSizeLevel_0}; //ptDictNo is 189
Point(218)={812846.460107,821285.074494,7.200000,meshSizeLevel_0}; //ptDictNo is 218
Point(219)={812846.460107,821285.074494,81.900000,meshSizeLevel_0}; //ptDictNo is 219
Point(243)={810079.600000,818142.074494,224.500000,meshSizeLevel_0}; //ptDictNo is 243
Point(244)={809703.460107,818142.074494,224.500000,meshSizeLevel_0}; //ptDictNo is 244
Point(248)={810079.600000,818925.164000,224.500000,meshSizeLevel_0}; //ptDictNo is 248
Point(253)={809703.460107,818925.164000,224.500000,meshSizeLevel_0}; //ptDictNo is 253
Point(273)={812470.320214,818142.074494,224.500000,meshSizeLevel_0}; //ptDictNo is 273
Point(278)={812470.320214,818925.164000,224.500000,meshSizeLevel_0}; //ptDictNo is 278
Point(303)={812846.460107,818142.074494,224.500000,meshSizeLevel_0}; //ptDictNo is 303
Point(308)={812846.460107,818925.164000,224.500000,meshSizeLevel_0}; //ptDictNo is 308
Point(338)={810079.600000,820501.984987,224.500000,meshSizeLevel_0}; //ptDictNo is 338
Point(343)={809703.460107,820501.984987,224.500000,meshSizeLevel_0}; //ptDictNo is 343
Point(368)={812846.460107,820501.984987,224.500000,meshSizeLevel_0}; //ptDictNo is 368
Point(373)={812470.320214,820501.984987,224.500000,meshSizeLevel_0}; //ptDictNo is 373
Point(398)={810079.600000,821285.074494,224.500000,meshSizeLevel_0}; //ptDictNo is 398
Point(403)={809703.460107,821285.074494,224.500000,meshSizeLevel_0}; //ptDictNo is 403
Point(428)={812470.320214,821285.074494,224.500000,meshSizeLevel_0}; //ptDictNo is 428
Point(458)={812846.460107,821285.074494,224.500000,meshSizeLevel_0}; //ptDictNo is 458
Point(481)={810079.600000,818925.164000,94.088034,meshSizeLevel_0}; //ptDictNo is 481
Point(482)={812470.320214,818925.164000,94.088034,meshSizeLevel_0}; //ptDictNo is 482
Point(487)={812470.320214,820501.984987,94.088034,meshSizeLevel_0}; //ptDictNo is 487
Point(492)={810079.600000,820501.984987,94.088034,meshSizeLevel_0}; //ptDictNo is 492
Line(1)={1,2};
Line(2)={2,3};
Line(3)={3,4};
Line(4)={4,1};
Line(6)={3,8};
Line(7)={8,9};
Line(8)={9,4};
Line(10)={8,13};
Line(11)={13,14};
Line(12)={14,9};
Line(13)={1,14};
Line(15)={13,2};
Line(26)={3,33};
Line(27)={33,34};
Line(28)={34,4};
Line(30)={33,38};
Line(31)={38,39};
Line(32)={39,34};
Line(34)={38,8};
Line(36)={9,39};
Line(50)={33,63};
Line(51)={63,64};
Line(52)={64,34};
Line(54)={63,68};
Line(55)={68,69};
Line(56)={69,64};
Line(58)={68,38};
Line(60)={39,69};
Line(78)={8,98};
Line(79)={98,99};
Line(80)={99,9};
Line(82)={98,103};
Line(83)={103,104};
Line(84)={104,99};
Line(85)={14,104};
Line(87)={103,13};
Line(102)={68,128};
Line(103)={128,129};
Line(104)={129,69};
Line(106)={128,133};
Line(107)={133,134};
Line(108)={134,129};
Line(109)={39,134};
Line(111)={133,38};
Line(126)={98,158};
Line(127)={158,159};
Line(128)={159,99};
Line(130)={158,163};
Line(131)={163,164};
Line(132)={164,159};
Line(133)={104,164};
Line(135)={163,103};
Line(146)={98,133};
Line(148)={134,99};
Line(150)={133,188};
Line(151)={188,189};
Line(152)={189,134};
Line(154)={188,158};
Line(156)={159,189};
Line(174)={128,218};
Line(175)={218,219};
Line(176)={219,129};
Line(178)={218,188};
Line(180)={189,219};
Line(194)={4,243};
Line(195)={243,244};
Line(196)={244,1};
Line(198)={9,248};
Line(199)={248,243};
Line(202)={14,253};
Line(203)={253,248};
Line(206)={244,253};
Line(218)={34,273};
Line(219)={273,243};
Line(222)={39,278};
Line(223)={278,273};
Line(227)={248,278};
Line(242)={64,303};
Line(243)={303,273};
Line(246)={69,308};
Line(247)={308,303};
Line(251)={278,308};
Line(270)={99,338};
Line(271)={338,248};
Line(274)={104,343};
Line(275)={343,338};
Line(278)={253,343};
Line(294)={129,368};
Line(295)={368,308};
Line(298)={134,373};
Line(299)={373,368};
Line(302)={278,373};
Line(318)={159,398};
Line(319)={398,338};
Line(322)={164,403};
Line(323)={403,398};
Line(326)={343,403};
Line(339)={373,338};
Line(342)={189,428};
Line(343)={428,373};
Line(347)={398,428};
Line(366)={219,458};
Line(367)={458,368};
Line(371)={428,458};
Line(385)={481,482};
Line(386)={482,278};
Line(388)={248,481};
Line(389)={482,487};
Line(390)={487,373};
Line(393)={487,492};
Line(394)={492,338};
Line(400)={492,481};
Line Loop(1)={1,2,3,4};
Line Loop(2)={-3,6,7,8};
Line Loop(3)={-7,10,11,12};
Line Loop(4)={13,-11,15,-1};
Line Loop(5)={-8,-12,-13,-4};
Line Loop(6)={-2,-15,-10,-6};
Line Loop(7)={-3,26,27,28};
Line Loop(8)={-27,30,31,32};
Line Loop(9)={-31,34,7,36};
Line Loop(11)={-32,-36,8,-28};
Line Loop(12)={-26,6,-34,-30};
Line Loop(13)={-27,50,51,52};
Line Loop(14)={-51,54,55,56};
Line Loop(15)={-55,58,31,60};
Line Loop(17)={-56,-60,32,-52};
Line Loop(18)={-50,30,-58,-54};
Line Loop(20)={-7,78,79,80};
Line Loop(21)={-79,82,83,84};
Line Loop(22)={85,-83,87,11};
Line Loop(23)={-80,-84,-85,12};
Line Loop(24)={10,-87,-82,-78};
Line Loop(26)={-55,102,103,104};
Line Loop(27)={-103,106,107,108};
Line Loop(28)={109,-107,111,31};
Line Loop(29)={-104,-108,-109,60};
Line Loop(30)={58,-111,-106,-102};
Line Loop(32)={-79,126,127,128};
Line Loop(33)={-127,130,131,132};
Line Loop(34)={133,-131,135,83};
Line Loop(35)={-128,-132,-133,84};
Line Loop(36)={82,-135,-130,-126};
Line Loop(37)={-79,146,107,148};
Line Loop(38)={-107,150,151,152};
Line Loop(39)={-151,154,127,156};
Line Loop(41)={-152,-156,128,-148};
Line Loop(42)={-146,126,-154,-150};
Line Loop(44)={-103,174,175,176};
Line Loop(45)={-175,178,151,180};
Line Loop(47)={-176,-180,152,108};
Line Loop(48)={106,150,-178,-174};
Line Loop(49)={-4,194,195,196};
Line Loop(50)={-8,198,199,-194};
Line Loop(51)={-12,202,203,-198};
Line Loop(52)={-196,206,-202,-13};
Line Loop(54)={-199,-203,-206,-195};
Line Loop(55)={-28,218,219,-194};
Line Loop(56)={-32,222,223,-218};
Line Loop(57)={-36,198,227,-222};
Line Loop(60)={-223,-227,199,-219};
Line Loop(61)={-52,242,243,-218};
Line Loop(62)={-56,246,247,-242};
Line Loop(63)={-60,222,251,-246};
Line Loop(66)={-247,-251,223,-243};
Line Loop(68)={-80,270,271,-198};
Line Loop(69)={-84,274,275,-270};
Line Loop(70)={202,278,-274,-85};
Line Loop(72)={-271,-275,-278,203};
Line Loop(74)={-104,294,295,-246};
Line Loop(75)={-108,298,299,-294};
Line Loop(76)={222,302,-298,-109};
Line Loop(78)={-295,-299,-302,251};
Line Loop(80)={-128,318,319,-270};
Line Loop(81)={-132,322,323,-318};
Line Loop(82)={274,326,-322,-133};
Line Loop(84)={-319,-323,-326,275};
Line Loop(85)={-148,298,339,-270};
Line Loop(86)={-152,342,343,-298};
Line Loop(87)={-156,318,347,-342};
Line Loop(90)={-343,-347,319,-339};
Line Loop(92)={-176,366,367,-294};
Line Loop(93)={-180,342,371,-366};
Line Loop(96)={-367,-371,343,299};
Line Loop(97)={385,386,-227,388};
Line Loop(98)={389,390,-302,-386};
Line Loop(99)={393,394,-339,-390};
Line Loop(100)={-388,-271,-394,400};
Line Loop(101)={-385,-400,-393,-389};
Line Loop(102)={302,339,271,227};
Plane Surface(1)={1};
Plane Surface(2)={2};
Plane Surface(3)={3};
Plane Surface(4)={4};
Plane Surface(5)={5};
Plane Surface(6)={6};
Plane Surface(7)={7};
Plane Surface(8)={8};
Plane Surface(9)={9};
Plane Surface(11)={11};
Plane Surface(12)={12};
Plane Surface(13)={13};
Plane Surface(14)={14};
Plane Surface(15)={15};
Plane Surface(17)={17};
Plane Surface(18)={18};
Plane Surface(20)={20};
Plane Surface(21)={21};
Plane Surface(22)={22};
Plane Surface(23)={23};
Plane Surface(24)={24};
Plane Surface(26)={26};
Plane Surface(27)={27};
Plane Surface(28)={28};
Plane Surface(29)={29};
Plane Surface(30)={30};
Plane Surface(32)={32};
Plane Surface(33)={33};
Plane Surface(34)={34};
Plane Surface(35)={35};
Plane Surface(36)={36};
Plane Surface(37)={37};
Plane Surface(38)={38};
Plane Surface(39)={39};
Plane Surface(41)={41};
Plane Surface(42)={42};
Plane Surface(44)={44};
Plane Surface(45)={45};
Plane Surface(47)={47};
Plane Surface(48)={48};
Plane Surface(49)={49};
Plane Surface(50)={50};
Plane Surface(51)={51};
Plane Surface(52)={52};
Plane Surface(54)={54};
Plane Surface(55)={55};
Plane Surface(56)={56};
Plane Surface(57)={57};
Plane Surface(60)={60};
Plane Surface(61)={61};
Plane Surface(62)={62};
Plane Surface(63)={63};
Plane Surface(66)={66};
Plane Surface(68)={68};
Plane Surface(69)={69};
Plane Surface(70)={70};
Plane Surface(72)={72};
Plane Surface(74)={74};
Plane Surface(75)={75};
Plane Surface(76)={76};
Plane Surface(78)={78};
Plane Surface(80)={80};
Plane Surface(81)={81};
Plane Surface(82)={82};
Plane Surface(84)={84};
Plane Surface(85)={85};
Plane Surface(86)={86};
Plane Surface(87)={87};
Plane Surface(90)={90};
Plane Surface(92)={92};
Plane Surface(93)={93};
Plane Surface(96)={96};
Plane Surface(97)={97};
Plane Surface(98)={98};
Plane Surface(99)={99};
Plane Surface(100)={100};
Plane Surface(101)={101};
Plane Surface(102)={102};
Surface Loop(1)={1,2,3,4,5,6};
Volume(1)={1};
Surface Loop(2)={7,8,9,2,11,12};
Volume(2)={2};
Surface Loop(3)={13,14,15,8,17,18};
Volume(3)={3};
Surface Loop(4)={3,20,21,22,23,24};
Volume(4)={4};
Surface Loop(5)={15,26,27,28,29,30};
Volume(5)={5};
Surface Loop(6)={21,32,33,34,35,36};
Volume(6)={6};
Surface Loop(7)={37,38,39,32,41,42};
Volume(7)={7};
Surface Loop(8)={27,44,45,38,47,48};
Volume(8)={8};
Surface Loop(9)={49,50,51,52,5,54};
Volume(9)={9};
Surface Loop(10)={55,56,57,50,11,60};
Volume(10)={10};
Surface Loop(11)={61,62,63,56,17,66};
Volume(11)={11};
Surface Loop(12)={51,68,69,70,23,72};
Volume(12)={12};
Surface Loop(13)={63,74,75,76,29,78};
Volume(13)={13};
Surface Loop(14)={69,80,81,82,35,84};
Volume(14)={14};
Surface Loop(15)={85,86,87,80,41,90};
Volume(15)={15};
Surface Loop(16)={75,92,93,86,47,96};
Volume(16)={16};
Surface Loop(17)={97,98,99,100,101,102};
Volume(17)={17};
Physical Surface("OuterBox_N")={93, 87, 81, 45, 39, 33};
Physical Surface("OuterBox_S")={61, 55, 49, 13, 7, 1};
Physical Surface("OuterBox_W")={34, 22, 4, 82, 70, 52};
Physical Surface("OuterBox_E")={92, 74, 62, 44, 26, 14};
Physical Surface("OuterBox_T")={102, 96, 90, 84, 78, 72, 66, 60, 54};
Physical Surface("OuterBox_B")={48, 42, 36, 30, 24, 18, 12, 6};
Physical Surface("OuterBox_Interface")={37, 9, 20, 28, 9};
Physical Volume("domain")={1, 2, 3, 4, 5, 6, 7, 8, 9, 10, 11, 12, 13, 14, 15, 16, 17};
Transfinite Line{371, 299, 180, 108, 299, 251, 108, 60, 251, -243, 60, -52, -178, -106, 180, 108, -106, -58, 108, 60, -58, 50, 60, -52}=10 Using Progression 0.9871;
Transfinite Line{-323, -275, -132, -84, -275, -203, -84, -12, -203, 195, -12, 4, 130, 82, -132, -84, 82, 10, -84, -12, 10, -2, -12, 4}=10 Using Progression 0.9871;
Transfinite Line{339, 227, 393, 385, 347, 339, 156, 148, 227, 219, 36, 28, 154, 146, 156, 148, 34, 26, 36, 28}=60 Using Progression 1.0;
Transfinite Line{-343, -367, -152, -176, -319, -343, -128, -152, 326, -319, 133, -128, 150, 174, -152, -176, 126, 150, -128, -152, -135, 126, 133, -128}=20 Using Progression 0.9993;
Transfinite Line{223, 247, 32, 56, 199, 223, 8, 32, -206, 199, -13, 8, -30, -54, 32, 56, -6, -30, 8, 32, 15, -6, -13, 8}=20 Using Progression 0.9993;
Transfinite Line{271, 302, 400, 389, 302, 295, 109, 104, 278, 271, 85, 80, 111, 102, 109, 104, 87, 78, 85, 80}=40 Using Progression 1.0;
Transfinite Line{151, 175, 103, 107, 127, 151, 107, 79, 131, 127, 79, 83, 107, 103, 55, 31, 83, 79, 7, 11, 31, 55, 51, 27, 7, 31, 27, 3, 11, 7, 3, 1}=20 Using Progression 1.0;
Transfinite Line{394, 390, 386, -388, 342, 366, 294, 298, 318, 342, 298, 270, 322, 318, 270, 274, 298, 294, 246, 222, 274, 270, 198, 202, 222, 246, 242, 218, 198, 222, 218, 194, 202, 198, 194, -196}=20 Using Progression 1.0634;
Transfinite Surface{102, 101, 100, 99, 98, 97, 96, 47, 86, 93, 92, 75, 90, 41, 80, 87, 86, 85, 84, 35, 82, 81, 80, 69, 78, 29, 76, 75, 74, 63, 72, 23, 70, 69, 68, 51, 66, 17, 56, 63, 62, 61, 60, 11, 50, 57, 56, 55, 54, 5, 52, 51, 50, 49, 48, 47, 38, 45, 44, 27, 42, 41, 32, 39, 38, 37, 36, 35, 34, 33, 32, 21, 30, 29, 28, 27, 26, 15, 24, 23, 22, 21, 20, 3, 18, 17, 8, 15, 14, 13, 12, 11, 2, 9, 8, 7, 6, 5, 4, 3, 2, 1};
Recombine Surface{102, 101, 100, 99, 98, 97, 96, 47, 86, 93, 92, 75, 90, 41, 80, 87, 86, 85, 84, 35, 82, 81, 80, 69, 78, 29, 76, 75, 74, 63, 72, 23, 70, 69, 68, 51, 66, 17, 56, 63, 62, 61, 60, 11, 50, 57, 56, 55, 54, 5, 52, 51, 50, 49, 48, 47, 38, 45, 44, 27, 42, 41, 32, 39, 38, 37, 36, 35, 34, 33, 32, 21, 30, 29, 28, 27, 26, 15, 24, 23, 22, 21, 20, 3, 18, 17, 8, 15, 14, 13, 12, 11, 2, 9, 8, 7, 6, 5, 4, 3, 2, 1};
