meshSize_dummy2=6;

Point(1)={63.976746,-18.851784,20.000000,meshSize_dummy2}; //ptDictNo is 1
Point(2)={-15.292964,-18.851784,20.000000,meshSize_dummy2}; //ptDictNo is 2
Point(3)={-15.292964,52.362061,20.000000,meshSize_dummy2}; //ptDictNo is 3
Point(4)={63.976746,52.362061,20.000000,meshSize_dummy2}; //ptDictNo is 4
Point(7)={-15.292964,-18.851784,0.000000,meshSize_dummy2}; //ptDictNo is 7
Point(8)={-15.292964,52.362061,0.000000,meshSize_dummy2}; //ptDictNo is 8
Point(13)={63.976746,52.362061,0.000000,meshSize_dummy2}; //ptDictNo is 13
Point(18)={63.976746,-18.851784,0.000000,meshSize_dummy2}; //ptDictNo is 18
Point(31)={125.959187,115.000862,0.000000,meshSize_dummy2}; //ptDictNo is 31
Point(32)={125.959187,-84.999138,0.000000,meshSize_dummy2}; //ptDictNo is 32
Point(33)={-74.040813,-84.999138,0.000000,meshSize_dummy2}; //ptDictNo is 33
Point(34)={-74.040813,115.000862,0.000000,meshSize_dummy2}; //ptDictNo is 34
Point(38)={-74.040813,115.000862,100.000000,meshSize_dummy2}; //ptDictNo is 38
Point(39)={125.959187,115.000862,100.000000,meshSize_dummy2}; //ptDictNo is 39
Point(43)={-74.040813,-84.999138,100.000000,meshSize_dummy2}; //ptDictNo is 43
Point(44)={125.959187,-84.999138,100.000000,meshSize_dummy2}; //ptDictNo is 44
Line(1)={1,2};
Line(2)={2,3};
Line(3)={3,4};
Line(4)={4,1};
Line(5)={2,7};
Line(6)={7,8};
Line(7)={8,3};
Line(10)={8,13};
Line(11)={13,4};
Line(14)={13,18};
Line(15)={18,1};
Line(19)={18,7};
Line(25)={31,32};
Line(26)={32,33};
Line(27)={33,34};
Line(28)={34,31};
Line(30)={34,38};
Line(31)={38,39};
Line(32)={39,31};
Line(34)={38,43};
Line(35)={43,44};
Line(36)={44,39};
Line(38)={33,43};
Line(43)={44,32};
Line Loop(1)={1,2,3,4};
Line Loop(2)={5,6,7,-2};
Line Loop(3)={-7,10,11,-3};
Line Loop(4)={-11,14,15,-4};
Line Loop(5)={-1,-15,19,-5};
Line Loop(6)={-6,-19,-14,-10};
Line Loop(7)={25,26,27,28};
Line Loop(8)={-28,30,31,32};
Line Loop(9)={-31,34,35,36};
Line Loop(10)={-27,38,-34,-30};
Line Loop(11)={-32,-36,43,-25};
Line Loop(12)={-26,-43,-35,-38};
Plane Surface(1)={1};
Plane Surface(2)={2};
Plane Surface(3)={3};
Plane Surface(4)={4};
Plane Surface(5)={5};
Plane Surface(6)={6,7};
Plane Surface(7)={8};
Plane Surface(8)={9};
Plane Surface(9)={10};
Plane Surface(10)={11};
Plane Surface(11)={12};
Surface Loop(1)={1,2,3,4,5,6,7,8,9,10,11};
Volume(1)={1};
Physical Surface("N")={7};
Physical Surface("S")={11};
Physical Surface("E")={10};
Physical Surface("W")={9};
Physical Surface("T")={8};
Physical Surface("B")={6};
Physical Surface("Outer_Interface")={1, 2, 3, 4, 5};
Physical Volume("domain")={1};
